HIERARCHY
ROOT Pelvis
{
	OFFSET 0.000000 0.000000 0.000000
	CHANNELS 6 Xposition Yposition Zposition Xrotation Yrotation Zrotation
	JOINT LeftUpLeg_virtual
	{
		OFFSET 0.000000 0.000000 0.000000
		CHANNELS 3 Xrotation Yrotation Zrotation
		JOINT LeftUpLeg
		{
			OFFSET 8.479700 -4.795502 -0.379100
			CHANNELS 3 Xrotation Yrotation Zrotation
			JOINT LeftLeg
			{
				OFFSET 0.024144 -32.555107 0.112900
				CHANNELS 3 Xrotation Yrotation Zrotation
				JOINT LeftFoot
				{
					OFFSET -0.024144 -32.638630 -3.012600
					CHANNELS 3 Xrotation Yrotation Zrotation
					JOINT LeftToeBase
					{
						OFFSET 0.970200 -13.225400 11.864200
						CHANNELS 3 Xrotation Yrotation Zrotation
						End Site
						{
							OFFSET 0 0 0
						}
					}
				}
			}
		}
	}
	JOINT RightUpLeg_virtual
	{
		OFFSET 0.000000 0.000000 0.000000
		CHANNELS 3 Xrotation Yrotation Zrotation
		JOINT RightUpLeg
		{
			OFFSET -8.479700 -4.795502 -0.379100
			CHANNELS 3 Xrotation Yrotation Zrotation
			JOINT RightLeg
			{
				OFFSET -0.023144 -32.555092 0.112900
				CHANNELS 3 Xrotation Yrotation Zrotation
				JOINT RightFoot
				{
					OFFSET 0.023144 -32.638641 -3.012700
					CHANNELS 3 Xrotation Yrotation Zrotation
					JOINT RightToeBase
					{
						OFFSET -0.970200 -13.225400 11.864200
						CHANNELS 3 Xrotation Yrotation Zrotation
						End Site
						{
							OFFSET 0 0 0
						}
					}
				}
			}
		}
	}
	JOINT Hips_virtual
	{
		OFFSET 0.000000 0.000000 0.000000
		CHANNELS 3 Xrotation Yrotation Zrotation
		JOINT Hips
		{
			OFFSET -0.000000 -0.000000 -0.000000
			CHANNELS 3 Xrotation Yrotation Zrotation
			JOINT Spine
			{
				OFFSET 0.000000 7.722000 1.166200
				CHANNELS 3 Xrotation Yrotation Zrotation
				JOINT Spine1
				{
					OFFSET 0.000000 12.024101 0.248800
					CHANNELS 3 Xrotation Yrotation Zrotation
					JOINT Spine2
					{
						OFFSET 0.000000 11.502998 -0.491200
						CHANNELS 3 Xrotation Yrotation Zrotation
						JOINT Neck_virtual
						{
							OFFSET 0.000000 0.000000 0.000000
							CHANNELS 3 Xrotation Yrotation Zrotation
							JOINT Neck
							{
								OFFSET 0.000000 18.430702 -3.123100
								CHANNELS 3 Xrotation Yrotation Zrotation
								JOINT Head
								{
									OFFSET 0.000000 9.051102 1.034000
									CHANNELS 3 Xrotation Yrotation Zrotation
									End Site
									{
										OFFSET 0 0 0
									}
								}
							}
						}
						JOINT LeftShoulder_virtual
						{
							OFFSET 0.000000 0.000000 0.000000
							CHANNELS 3 Xrotation Yrotation Zrotation
							JOINT LeftShoulder
							{
								OFFSET 6.197800 13.665199 -4.064700
								CHANNELS 3 Xrotation Yrotation Zrotation
								JOINT LeftArm
								{
									OFFSET 7.778100 -0.187103 -1.709300
									CHANNELS 3 Xrotation Yrotation Zrotation
									JOINT LeftForeArm
									{
										OFFSET 22.049376 0.000000 0.000000
										CHANNELS 3 Xrotation Yrotation Zrotation
										JOINT LeftHand
										{
											OFFSET 23.009392 0.000000 0.000000
											CHANNELS 3 Xrotation Yrotation Zrotation
											End Site
											{
												OFFSET 0 0 0
											}
										}
									}
								}
							}
						}
						JOINT RightShoulder_virtual
						{
							OFFSET 0.000000 0.000000 0.000000
							CHANNELS 3 Xrotation Yrotation Zrotation
							JOINT RightShoulder
							{
								OFFSET -6.197800 13.665199 -4.064700
								CHANNELS 3 Xrotation Yrotation Zrotation
								JOINT RightArm
								{
									OFFSET -7.778100 -0.187103 -1.709300
									CHANNELS 3 Xrotation Yrotation Zrotation
									JOINT RightForeArm
									{
										OFFSET -22.049376 0.000000 0.000000
										CHANNELS 3 Xrotation Yrotation Zrotation
										JOINT RightHand
										{
											OFFSET -23.009392 0.000000 0.000000
											CHANNELS 3 Xrotation Yrotation Zrotation
											End Site
											{
												OFFSET 0 0 0
											}
										}
									}
								}
							}
						}
					}
				}
			}
		}
	}
}
MOTION
Frames: 4
Frame Time: 0.03333333
8.683934 157.969208 54.689770 0.000000 0.000000 0.000000 6.083544 18.643461 -0.034229 -38.679225 21.719990 10.458561 58.960426 -3.260644 -0.158947 8.696293 -0.989372 -12.316515 0.000000 0.000000 0.000000 6.083544 18.643461 -0.034229 -48.753866 1.866604 -19.779820 23.003556 8.916219 1.061098 12.841462 18.937154 24.056550 0.000000 0.000000 0.000000 6.083544 18.643461 -0.034229 0.000000 0.000000 0.000000 7.319707 -1.939880 -4.342932 14.411472 -2.597694 1.282298 0.000000 0.000000 0.000000 14.393223 -2.607810 1.534272 -3.431898 0.659723 -7.971159 0.000000 0.000000 0.000000 14.393223 -2.607810 1.534272 -1.645773 11.892281 6.117614 -105.464384 -55.286632 -116.659030 179.931280 -87.100990 179.931471 0.000000 0.000000 0.000000 14.393223 -2.607810 1.534272 2.075053 14.947587 1.840489 -36.947294 40.337554 63.095020 -0.000015 48.043834 0.000017 0.000000 0.000000 0.000000 
8.785227 155.635544 56.838425 0.000000 0.000000 0.000000 5.020430 18.447291 0.456378 -37.702251 21.693536 10.119302 57.742167 -2.550728 -0.124317 9.864874 -1.280026 -12.325165 0.000000 0.000000 0.000000 5.020430 18.447291 0.456378 -46.854370 1.361367 -19.740311 22.850435 8.505051 1.097864 14.278352 19.850015 23.147293 0.000000 0.000000 0.000000 5.020430 18.447291 0.456378 0.000000 0.000001 0.000000 7.360080 -1.797308 -4.368062 14.383883 -2.380557 1.213552 0.000000 0.000000 0.000000 14.364175 -2.405682 1.448314 -3.302215 0.547484 -7.776379 0.000000 0.000000 0.000000 14.364175 -2.405682 1.448314 -1.522745 11.317942 5.579476 -102.529383 -55.782988 -113.588771 179.986659 -88.008060 179.986686 0.000000 0.000000 0.000000 14.364175 -2.405682 1.448314 2.084718 14.908505 1.923964 -37.666116 40.172584 63.297733 0.000025 48.302668 -0.000035 0.000000 0.000000 0.000000 
8.886986 153.095367 59.010704 0.000000 0.000000 0.000000 3.933257 18.126531 0.932504 -36.470615 21.531767 9.794476 56.248394 -2.338907 -0.112479 10.756695 -1.527367 -12.740574 0.000000 0.000000 0.000000 3.933257 18.126531 0.932504 -44.922670 0.736563 -19.558805 22.815789 8.165991 1.116715 15.658320 20.226960 22.009482 0.000000 0.000000 0.000000 3.933257 18.126531 0.932504 0.000000 -0.000001 0.000000 7.388361 -1.640792 -4.375099 14.331757 -2.196025 1.072490 0.000000 0.000000 0.000000 14.312128 -2.231722 1.291072 -3.139350 0.436490 -7.492979 0.000000 0.000000 0.000000 14.312128 -2.231722 1.291072 -1.447303 10.959920 5.211208 -99.827716 -56.207222 -110.766742 179.990689 -89.304232 179.990579 0.000000 0.000000 0.000000 14.312128 -2.231722 1.291072 2.080138 14.739080 2.062844 -38.227824 39.650956 63.883688 0.000009 49.554402 -0.000014 0.000000 0.000000 0.000000 
8.990193 150.356384 61.194721 0.000000 0.000000 0.000000 2.861186 17.729897 1.364350 -35.058012 21.264886 9.457742 54.451334 -2.455602 -0.115795 11.428218 -1.741664 -13.455847 0.000000 0.000000 0.000000 2.861186 17.729897 1.364350 -42.958270 0.000549 -19.273105 22.842502 7.879416 1.115570 16.977157 20.081815 20.761770 0.000000 0.000000 0.000000 2.861186 17.729897 1.364350 0.000000 -0.000002 0.000000 7.397898 -1.476547 -4.350016 14.253389 -2.029490 0.889713 0.000000 0.000000 0.000000 14.234358 -2.070373 1.095189 -2.973546 0.335320 -7.170157 0.000000 0.000000 0.000000 14.234358 -2.070373 1.095189 -1.416789 10.842150 5.015825 -97.509270 -56.558495 -108.357912 0.000525 -89.118177 0.000251 0.000000 0.000000 0.000000 14.234358 -2.070373 1.095189 2.065515 14.495183 2.197897 -38.516410 38.803937 64.754947 0.000008 51.747070 -0.000005 0.000000 0.000000 0.000000 
